<svg width="15" height="15" viewBox="0 0 15 15" fill="none" xmlns="http://www.w3.org/2000/svg">
<path d="M10.9396 0H4.06036C1.82144 0 0 1.82144 0 4.06036V10.9397C0 13.1785 1.82144 15 4.06036 15H10.9397C13.1785 15 15 13.1785 15 10.9397V4.06036C15 1.82144 13.1785 0 10.9396 0ZM14.1206 10.9397C14.1206 12.6936 12.6936 14.1206 10.9396 14.1206H4.06036C2.30632 14.1206 0.879362 12.6936 0.879362 10.9397V4.06036C0.879362 2.30632 2.30632 0.879362 4.06036 0.879362H10.9397C12.6936 0.879362 14.1206 2.30632 14.1206 4.06036V10.9397Z" fill="black"/>
<path d="M7.49988 3.39844C5.2383 3.39844 3.39844 5.2383 3.39844 7.49988C3.39844 9.76146 5.2383 11.6013 7.49988 11.6013C9.76146 11.6013 11.6013 9.76146 11.6013 7.49988C11.6013 5.2383 9.76146 3.39844 7.49988 3.39844ZM7.49988 10.722C5.7233 10.722 4.2778 9.27657 4.2778 7.49988C4.2778 5.7233 5.7233 4.2778 7.49988 4.2778C9.27657 4.2778 10.722 5.7233 10.722 7.49988C10.722 9.27657 9.27657 10.722 7.49988 10.722Z" fill="black"/>
<path d="M11.7002 1.94189C11.0319 1.94189 10.4883 2.4856 10.4883 3.15382C10.4883 3.82216 11.0319 4.36586 11.7002 4.36586C12.3685 4.36586 12.9122 3.82216 12.9122 3.15382C12.9122 2.48549 12.3685 1.94189 11.7002 1.94189ZM11.7002 3.48639C11.5169 3.48639 11.3676 3.33716 11.3676 3.15382C11.3676 2.97037 11.5169 2.82126 11.7002 2.82126C11.8837 2.82126 12.0329 2.97037 12.0329 3.15382C12.0329 3.33716 11.8837 3.48639 11.7002 3.48639Z" fill="black"/>
</svg>
